<mxfile host="Electron" modified="2024-04-25T09:48:08.153Z" agent="Mozilla/5.0 (X11; Linux x86_64) AppleWebKit/537.36 (KHTML, like Gecko) draw.io/24.2.5 Chrome/120.0.6099.109 Electron/28.1.0 Safari/537.36" etag="Zv0oRLW987XiloQknvpZ" version="24.2.5" type="device">
  <diagram name="Page-1" id="DyquLoCqnv8UFfpNbI6D">
    <mxGraphModel dx="794" dy="1128" grid="1" gridSize="10" guides="1" tooltips="1" connect="1" arrows="1" fold="1" page="1" pageScale="1" pageWidth="740" pageHeight="540" math="0" shadow="0">
      <root>
        <mxCell id="0" />
        <mxCell id="1" parent="0" />
        <mxCell id="2W-PBRkv51gdTkOP3Wb2-12" value="store_mgr" style="swimlane;fontStyle=1;align=center;verticalAlign=top;childLayout=stackLayout;horizontal=1;startSize=30;horizontalStack=0;resizeParent=1;resizeParentMax=0;resizeLast=0;collapsible=0;marginBottom=0;whiteSpace=wrap;html=1;fontSize=14;fontFamily=Courier New;" parent="1" vertex="1">
          <mxGeometry x="40" y="40" width="320" height="460" as="geometry" />
        </mxCell>
        <mxCell id="2W-PBRkv51gdTkOP3Wb2-13" value="* SM_FileHandle: { Char, Int, Int, Void }" style="text;strokeColor=none;fillColor=none;align=left;verticalAlign=middle;spacingLeft=4;spacingRight=4;overflow=hidden;rotatable=0;points=[[0,0.5],[1,0.5]];portConstraint=eastwest;whiteSpace=wrap;html=1;fontSize=10;fontFamily=Courier New;" parent="2W-PBRkv51gdTkOP3Wb2-12" vertex="1">
          <mxGeometry y="30" width="320" height="20" as="geometry" />
        </mxCell>
        <mxCell id="2W-PBRkv51gdTkOP3Wb2-26" value="* SM_PageHandle: Char" style="text;strokeColor=none;fillColor=none;align=left;verticalAlign=middle;spacingLeft=4;spacingRight=4;overflow=hidden;rotatable=0;points=[[0,0.5],[1,0.5]];portConstraint=eastwest;whiteSpace=wrap;html=1;fontSize=10;fontFamily=Courier New;" parent="2W-PBRkv51gdTkOP3Wb2-12" vertex="1">
          <mxGeometry y="50" width="320" height="20" as="geometry" />
        </mxCell>
        <mxCell id="2W-PBRkv51gdTkOP3Wb2-25" value="" style="line;strokeWidth=1;fillColor=none;align=left;verticalAlign=middle;spacingTop=0;spacingLeft=0;spacingRight=0;rotatable=0;labelPosition=right;points=[];portConstraint=eastwest;strokeColor=inherit;spacing=0;fontSize=10;fontFamily=Courier New;" parent="2W-PBRkv51gdTkOP3Wb2-12" vertex="1">
          <mxGeometry y="70" width="320" height="10" as="geometry" />
        </mxCell>
        <mxCell id="2W-PBRkv51gdTkOP3Wb2-17" value="+ initStorageManager(Void): Void" style="text;strokeColor=none;fillColor=none;align=left;verticalAlign=middle;spacingLeft=4;spacingRight=4;overflow=hidden;rotatable=0;points=[[0,0.5],[1,0.5]];portConstraint=eastwest;whiteSpace=wrap;html=1;fontSize=10;fontFamily=Courier New;" parent="2W-PBRkv51gdTkOP3Wb2-12" vertex="1">
          <mxGeometry y="80" width="320" height="20" as="geometry" />
        </mxCell>
        <mxCell id="2W-PBRkv51gdTkOP3Wb2-16" value="+ createPageFile(Char): RC" style="text;strokeColor=none;fillColor=none;align=left;verticalAlign=middle;spacingLeft=4;spacingRight=4;overflow=hidden;rotatable=0;points=[[0,0.5],[1,0.5]];portConstraint=eastwest;whiteSpace=wrap;html=1;fontSize=10;fontFamily=Courier New;" parent="2W-PBRkv51gdTkOP3Wb2-12" vertex="1">
          <mxGeometry y="100" width="320" height="20" as="geometry" />
        </mxCell>
        <mxCell id="2W-PBRkv51gdTkOP3Wb2-18" value="+ openPageFile(Char, SM_FileHandle): RC" style="text;strokeColor=none;fillColor=none;align=left;verticalAlign=middle;spacingLeft=4;spacingRight=4;overflow=hidden;rotatable=0;points=[[0,0.5],[1,0.5]];portConstraint=eastwest;whiteSpace=wrap;html=1;fontSize=10;fontFamily=Courier New;" parent="2W-PBRkv51gdTkOP3Wb2-12" vertex="1">
          <mxGeometry y="120" width="320" height="20" as="geometry" />
        </mxCell>
        <mxCell id="2W-PBRkv51gdTkOP3Wb2-19" value="+ closePageFile(SM_FileHandle): RC" style="text;strokeColor=none;fillColor=none;align=left;verticalAlign=middle;spacingLeft=4;spacingRight=4;overflow=hidden;rotatable=0;points=[[0,0.5],[1,0.5]];portConstraint=eastwest;whiteSpace=wrap;html=1;fontSize=10;fontFamily=Courier New;" parent="2W-PBRkv51gdTkOP3Wb2-12" vertex="1">
          <mxGeometry y="140" width="320" height="20" as="geometry" />
        </mxCell>
        <mxCell id="2W-PBRkv51gdTkOP3Wb2-20" value="+ destroyPageFile(Char): RC" style="text;strokeColor=none;fillColor=none;align=left;verticalAlign=middle;spacingLeft=4;spacingRight=4;overflow=hidden;rotatable=0;points=[[0,0.5],[1,0.5]];portConstraint=eastwest;whiteSpace=wrap;html=1;fontSize=10;fontFamily=Courier New;" parent="2W-PBRkv51gdTkOP3Wb2-12" vertex="1">
          <mxGeometry y="160" width="320" height="20" as="geometry" />
        </mxCell>
        <mxCell id="2W-PBRkv51gdTkOP3Wb2-22" value="+ readBlock(Int, SM_FileHandle, SM_PageHandle): RC" style="text;strokeColor=none;fillColor=none;align=left;verticalAlign=middle;spacingLeft=4;spacingRight=4;overflow=hidden;rotatable=0;points=[[0,0.5],[1,0.5]];portConstraint=eastwest;whiteSpace=wrap;html=1;fontSize=10;fontFamily=Courier New;" parent="2W-PBRkv51gdTkOP3Wb2-12" vertex="1">
          <mxGeometry y="180" width="320" height="20" as="geometry" />
        </mxCell>
        <mxCell id="2W-PBRkv51gdTkOP3Wb2-21" value="+ getBlockPos(SM_FileHandle): Int" style="text;strokeColor=none;fillColor=none;align=left;verticalAlign=middle;spacingLeft=4;spacingRight=4;overflow=hidden;rotatable=0;points=[[0,0.5],[1,0.5]];portConstraint=eastwest;whiteSpace=wrap;html=1;fontSize=10;fontFamily=Courier New;" parent="2W-PBRkv51gdTkOP3Wb2-12" vertex="1">
          <mxGeometry y="200" width="320" height="20" as="geometry" />
        </mxCell>
        <mxCell id="2W-PBRkv51gdTkOP3Wb2-23" value="+ readFirstBlock(SM_FileHandle, SM_PageHandle): RC" style="text;strokeColor=none;fillColor=none;align=left;verticalAlign=middle;spacingLeft=4;spacingRight=4;overflow=hidden;rotatable=0;points=[[0,0.5],[1,0.5]];portConstraint=eastwest;whiteSpace=wrap;html=1;fontSize=10;fontFamily=Courier New;" parent="2W-PBRkv51gdTkOP3Wb2-12" vertex="1">
          <mxGeometry y="220" width="320" height="20" as="geometry" />
        </mxCell>
        <mxCell id="2W-PBRkv51gdTkOP3Wb2-41" value="+ readPreviousBlock(&lt;div&gt;&amp;nbsp; &amp;nbsp; SM_FileHandle,&lt;/div&gt;&lt;div&gt;&amp;nbsp; &amp;nbsp; SM_PageHandle): RC&lt;/div&gt;" style="text;strokeColor=none;fillColor=none;align=left;verticalAlign=middle;spacingLeft=4;spacingRight=4;overflow=hidden;rotatable=0;points=[[0,0.5],[1,0.5]];portConstraint=eastwest;whiteSpace=wrap;html=1;fontSize=10;fontFamily=Courier New;" parent="2W-PBRkv51gdTkOP3Wb2-12" vertex="1">
          <mxGeometry y="240" width="320" height="40" as="geometry" />
        </mxCell>
        <mxCell id="2W-PBRkv51gdTkOP3Wb2-42" value="+ readCurrentBlock(&lt;div&gt;&amp;nbsp; &amp;nbsp; SM_FileHandle,&lt;/div&gt;&lt;div&gt;&amp;nbsp; &amp;nbsp; SM_PageHandle): RC&lt;/div&gt;" style="text;strokeColor=none;fillColor=none;align=left;verticalAlign=middle;spacingLeft=4;spacingRight=4;overflow=hidden;rotatable=0;points=[[0,0.5],[1,0.5]];portConstraint=eastwest;whiteSpace=wrap;html=1;fontSize=10;fontFamily=Courier New;" parent="2W-PBRkv51gdTkOP3Wb2-12" vertex="1">
          <mxGeometry y="280" width="320" height="40" as="geometry" />
        </mxCell>
        <mxCell id="2W-PBRkv51gdTkOP3Wb2-43" value="+ readNextBlock(SM_FileHandle, SM_PageHandle): RC" style="text;strokeColor=none;fillColor=none;align=left;verticalAlign=middle;spacingLeft=4;spacingRight=4;overflow=hidden;rotatable=0;points=[[0,0.5],[1,0.5]];portConstraint=eastwest;whiteSpace=wrap;html=1;fontSize=10;fontFamily=Courier New;" parent="2W-PBRkv51gdTkOP3Wb2-12" vertex="1">
          <mxGeometry y="320" width="320" height="20" as="geometry" />
        </mxCell>
        <mxCell id="2W-PBRkv51gdTkOP3Wb2-60" value="+ readLastBlock(SM_FileHandle, SM_PageHandle): RC" style="text;strokeColor=none;fillColor=none;align=left;verticalAlign=middle;spacingLeft=4;spacingRight=4;overflow=hidden;rotatable=0;points=[[0,0.5],[1,0.5]];portConstraint=eastwest;whiteSpace=wrap;html=1;fontSize=10;fontFamily=Courier New;" parent="2W-PBRkv51gdTkOP3Wb2-12" vertex="1">
          <mxGeometry y="340" width="320" height="20" as="geometry" />
        </mxCell>
        <mxCell id="2W-PBRkv51gdTkOP3Wb2-61" value="+ writeBlock(int, SM_FileHandle, SM_PageHandle): RC" style="text;strokeColor=none;fillColor=none;align=left;verticalAlign=middle;spacingLeft=4;spacingRight=4;overflow=hidden;rotatable=0;points=[[0,0.5],[1,0.5]];portConstraint=eastwest;whiteSpace=wrap;html=1;fontSize=10;fontFamily=Courier New;" parent="2W-PBRkv51gdTkOP3Wb2-12" vertex="1">
          <mxGeometry y="360" width="320" height="20" as="geometry" />
        </mxCell>
        <mxCell id="2W-PBRkv51gdTkOP3Wb2-59" value="+ writeCurrentBlock(&lt;div&gt;&amp;nbsp; &amp;nbsp; SM_FileHandle,&lt;/div&gt;&lt;div&gt;&amp;nbsp; &amp;nbsp; SM_PageHandle): RC&lt;/div&gt;" style="text;strokeColor=none;fillColor=none;align=left;verticalAlign=middle;spacingLeft=4;spacingRight=4;overflow=hidden;rotatable=0;points=[[0,0.5],[1,0.5]];portConstraint=eastwest;whiteSpace=wrap;html=1;fontSize=10;fontFamily=Courier New;" parent="2W-PBRkv51gdTkOP3Wb2-12" vertex="1">
          <mxGeometry y="380" width="320" height="40" as="geometry" />
        </mxCell>
        <mxCell id="2W-PBRkv51gdTkOP3Wb2-62" value="+ appendEmptyBlock(SM_FileHandle): RC" style="text;strokeColor=none;fillColor=none;align=left;verticalAlign=middle;spacingLeft=4;spacingRight=4;overflow=hidden;rotatable=0;points=[[0,0.5],[1,0.5]];portConstraint=eastwest;whiteSpace=wrap;html=1;fontSize=10;fontFamily=Courier New;" parent="2W-PBRkv51gdTkOP3Wb2-12" vertex="1">
          <mxGeometry y="420" width="320" height="20" as="geometry" />
        </mxCell>
        <mxCell id="2W-PBRkv51gdTkOP3Wb2-63" value="+ ensureCapacity(Int, SM_FileHandle): RC" style="text;strokeColor=none;fillColor=none;align=left;verticalAlign=middle;spacingLeft=4;spacingRight=4;overflow=hidden;rotatable=0;points=[[0,0.5],[1,0.5]];portConstraint=eastwest;whiteSpace=wrap;html=1;fontSize=10;fontFamily=Courier New;" parent="2W-PBRkv51gdTkOP3Wb2-12" vertex="1">
          <mxGeometry y="440" width="320" height="20" as="geometry" />
        </mxCell>
        <mxCell id="2W-PBRkv51gdTkOP3Wb2-27" value="dberror" style="swimlane;fontStyle=1;align=center;verticalAlign=top;childLayout=stackLayout;horizontal=1;startSize=30;horizontalStack=0;resizeParent=1;resizeParentMax=0;resizeLast=0;collapsible=0;marginBottom=0;whiteSpace=wrap;html=1;fontSize=14;fontFamily=Courier New;" parent="1" vertex="1">
          <mxGeometry x="440" y="40" width="240" height="130" as="geometry" />
        </mxCell>
        <mxCell id="2W-PBRkv51gdTkOP3Wb2-28" value="* RC: Int" style="text;strokeColor=none;fillColor=none;align=left;verticalAlign=middle;spacingLeft=4;spacingRight=4;overflow=hidden;rotatable=0;points=[[0,0.5],[1,0.5]];portConstraint=eastwest;whiteSpace=wrap;html=1;fontSize=10;fontFamily=Courier New;" parent="2W-PBRkv51gdTkOP3Wb2-27" vertex="1">
          <mxGeometry y="30" width="240" height="20" as="geometry" />
        </mxCell>
        <mxCell id="2W-PBRkv51gdTkOP3Wb2-30" value="" style="line;strokeWidth=1;fillColor=none;align=left;verticalAlign=middle;spacingTop=0;spacingLeft=0;spacingRight=0;rotatable=0;labelPosition=right;points=[];portConstraint=eastwest;strokeColor=inherit;spacing=0;fontSize=10;fontFamily=Courier New;" parent="2W-PBRkv51gdTkOP3Wb2-27" vertex="1">
          <mxGeometry y="50" width="240" height="10" as="geometry" />
        </mxCell>
        <mxCell id="2W-PBRkv51gdTkOP3Wb2-31" value="- RC_message: Char" style="text;strokeColor=none;fillColor=none;align=left;verticalAlign=middle;spacingLeft=4;spacingRight=4;overflow=hidden;rotatable=0;points=[[0,0.5],[1,0.5]];portConstraint=eastwest;whiteSpace=wrap;html=1;fontSize=10;fontFamily=Courier New;" parent="2W-PBRkv51gdTkOP3Wb2-27" vertex="1">
          <mxGeometry y="60" width="240" height="20" as="geometry" />
        </mxCell>
        <mxCell id="2W-PBRkv51gdTkOP3Wb2-32" value="" style="line;strokeWidth=1;fillColor=none;align=left;verticalAlign=middle;spacingTop=0;spacingLeft=0;spacingRight=0;rotatable=0;labelPosition=right;points=[];portConstraint=eastwest;strokeColor=inherit;spacing=0;fontSize=10;fontFamily=Courier New;" parent="2W-PBRkv51gdTkOP3Wb2-27" vertex="1">
          <mxGeometry y="80" width="240" height="10" as="geometry" />
        </mxCell>
        <mxCell id="2W-PBRkv51gdTkOP3Wb2-33" value="+ printError(RC): Void" style="text;strokeColor=none;fillColor=none;align=left;verticalAlign=middle;spacingLeft=4;spacingRight=4;overflow=hidden;rotatable=0;points=[[0,0.5],[1,0.5]];portConstraint=eastwest;whiteSpace=wrap;html=1;fontSize=10;fontFamily=Courier New;" parent="2W-PBRkv51gdTkOP3Wb2-27" vertex="1">
          <mxGeometry y="90" width="240" height="20" as="geometry" />
        </mxCell>
        <mxCell id="2W-PBRkv51gdTkOP3Wb2-34" value="+ errorMessage(RC): Char" style="text;strokeColor=none;fillColor=none;align=left;verticalAlign=middle;spacingLeft=4;spacingRight=4;overflow=hidden;rotatable=0;points=[[0,0.5],[1,0.5]];portConstraint=eastwest;whiteSpace=wrap;html=1;fontSize=10;fontFamily=Courier New;" parent="2W-PBRkv51gdTkOP3Wb2-27" vertex="1">
          <mxGeometry y="110" width="240" height="20" as="geometry" />
        </mxCell>
        <mxCell id="2W-PBRkv51gdTkOP3Wb2-64" value="test_assign1_1" style="swimlane;fontStyle=1;align=center;verticalAlign=top;childLayout=stackLayout;horizontal=1;startSize=30;horizontalStack=0;resizeParent=1;resizeParentMax=0;resizeLast=0;collapsible=0;marginBottom=0;whiteSpace=wrap;html=1;fontSize=10;fontFamily=Courier New;" parent="1" vertex="1">
          <mxGeometry x="440" y="200" width="240" height="160" as="geometry" />
        </mxCell>
        <mxCell id="2W-PBRkv51gdTkOP3Wb2-67" value="- testName: Char" style="text;strokeColor=none;fillColor=none;align=left;verticalAlign=middle;spacingLeft=4;spacingRight=4;overflow=hidden;rotatable=0;points=[[0,0.5],[1,0.5]];portConstraint=eastwest;whiteSpace=wrap;html=1;fontSize=10;fontFamily=Courier New;" parent="2W-PBRkv51gdTkOP3Wb2-64" vertex="1">
          <mxGeometry y="30" width="240" height="20" as="geometry" />
        </mxCell>
        <mxCell id="2W-PBRkv51gdTkOP3Wb2-68" value="" style="line;strokeWidth=1;fillColor=none;align=left;verticalAlign=middle;spacingTop=0;spacingLeft=0;spacingRight=0;rotatable=0;labelPosition=right;points=[];portConstraint=eastwest;strokeColor=inherit;spacing=0;fontSize=10;fontFamily=Courier New;" parent="2W-PBRkv51gdTkOP3Wb2-64" vertex="1">
          <mxGeometry y="50" width="240" height="10" as="geometry" />
        </mxCell>
        <mxCell id="2W-PBRkv51gdTkOP3Wb2-79" style="edgeStyle=orthogonalEdgeStyle;rounded=0;orthogonalLoop=1;jettySize=auto;html=1;exitX=1;exitY=0.5;exitDx=0;exitDy=0;entryX=1;entryY=0.5;entryDx=0;entryDy=0;" parent="2W-PBRkv51gdTkOP3Wb2-64" source="2W-PBRkv51gdTkOP3Wb2-69" target="2W-PBRkv51gdTkOP3Wb2-71" edge="1">
          <mxGeometry relative="1" as="geometry" />
        </mxCell>
        <mxCell id="Ri6osJwRoKcSnOSPko2Z-11" style="edgeStyle=orthogonalEdgeStyle;rounded=0;orthogonalLoop=1;jettySize=auto;html=1;exitX=1;exitY=0.5;exitDx=0;exitDy=0;entryX=1;entryY=0.5;entryDx=0;entryDy=0;" parent="2W-PBRkv51gdTkOP3Wb2-64" source="2W-PBRkv51gdTkOP3Wb2-69" target="Ri6osJwRoKcSnOSPko2Z-1" edge="1">
          <mxGeometry relative="1" as="geometry" />
        </mxCell>
        <mxCell id="Ri6osJwRoKcSnOSPko2Z-16" style="edgeStyle=orthogonalEdgeStyle;rounded=0;orthogonalLoop=1;jettySize=auto;html=1;exitX=1;exitY=0.5;exitDx=0;exitDy=0;entryX=1;entryY=0.5;entryDx=0;entryDy=0;" parent="2W-PBRkv51gdTkOP3Wb2-64" source="2W-PBRkv51gdTkOP3Wb2-69" target="2W-PBRkv51gdTkOP3Wb2-70" edge="1">
          <mxGeometry relative="1" as="geometry">
            <Array as="points">
              <mxPoint x="260" y="70" />
              <mxPoint x="260" y="90" />
            </Array>
          </mxGeometry>
        </mxCell>
        <mxCell id="6TKqkTE9r3XJfxrBiwmd-2" style="edgeStyle=orthogonalEdgeStyle;rounded=0;orthogonalLoop=1;jettySize=auto;html=1;exitX=1;exitY=0.5;exitDx=0;exitDy=0;entryX=1;entryY=0.5;entryDx=0;entryDy=0;" parent="2W-PBRkv51gdTkOP3Wb2-64" source="2W-PBRkv51gdTkOP3Wb2-69" target="6TKqkTE9r3XJfxrBiwmd-1" edge="1">
          <mxGeometry relative="1" as="geometry" />
        </mxCell>
        <mxCell id="2W-PBRkv51gdTkOP3Wb2-69" value="+ main(Void): Int" style="text;strokeColor=none;fillColor=none;align=left;verticalAlign=middle;spacingLeft=4;spacingRight=4;overflow=hidden;rotatable=0;points=[[0,0.5],[1,0.5]];portConstraint=eastwest;whiteSpace=wrap;html=1;fontSize=10;fontStyle=1;fontFamily=Courier New;" parent="2W-PBRkv51gdTkOP3Wb2-64" vertex="1">
          <mxGeometry y="60" width="240" height="20" as="geometry" />
        </mxCell>
        <mxCell id="2W-PBRkv51gdTkOP3Wb2-70" value="+ testCreateOpenClose(Void): Void" style="text;strokeColor=none;fillColor=none;align=left;verticalAlign=middle;spacingLeft=4;spacingRight=4;overflow=hidden;rotatable=0;points=[[0,0.5],[1,0.5]];portConstraint=eastwest;whiteSpace=wrap;html=1;fontSize=10;fontFamily=Courier New;" parent="2W-PBRkv51gdTkOP3Wb2-64" vertex="1">
          <mxGeometry y="80" width="240" height="20" as="geometry" />
        </mxCell>
        <mxCell id="Ri6osJwRoKcSnOSPko2Z-1" value="+ testSinglePageContent(Void): Void" style="text;strokeColor=none;fillColor=none;align=left;verticalAlign=middle;spacingLeft=4;spacingRight=4;overflow=hidden;rotatable=0;points=[[0,0.5],[1,0.5]];portConstraint=eastwest;whiteSpace=wrap;html=1;fontSize=10;fontFamily=Courier New;" parent="2W-PBRkv51gdTkOP3Wb2-64" vertex="1">
          <mxGeometry y="100" width="240" height="20" as="geometry" />
        </mxCell>
        <mxCell id="6TKqkTE9r3XJfxrBiwmd-1" value="+ testMultiplePageContent(Void): Void" style="text;strokeColor=none;fillColor=none;align=left;verticalAlign=middle;spacingLeft=4;spacingRight=4;overflow=hidden;rotatable=0;points=[[0,0.5],[1,0.5]];portConstraint=eastwest;whiteSpace=wrap;html=1;fontSize=10;fontFamily=Courier New;" parent="2W-PBRkv51gdTkOP3Wb2-64" vertex="1">
          <mxGeometry y="120" width="240" height="20" as="geometry" />
        </mxCell>
        <mxCell id="2W-PBRkv51gdTkOP3Wb2-71" value="+ testExpandCapacity(Void): Void" style="text;strokeColor=none;fillColor=none;align=left;verticalAlign=middle;spacingLeft=4;spacingRight=4;overflow=hidden;rotatable=0;points=[[0,0.5],[1,0.5]];portConstraint=eastwest;whiteSpace=wrap;html=1;fontSize=10;fontFamily=Courier New;" parent="2W-PBRkv51gdTkOP3Wb2-64" vertex="1">
          <mxGeometry y="140" width="240" height="20" as="geometry" />
        </mxCell>
        <mxCell id="2W-PBRkv51gdTkOP3Wb2-82" style="edgeStyle=orthogonalEdgeStyle;rounded=0;orthogonalLoop=1;jettySize=auto;html=1;exitX=0;exitY=0.5;exitDx=0;exitDy=0;entryX=1;entryY=0.5;entryDx=0;entryDy=0;" parent="1" source="2W-PBRkv51gdTkOP3Wb2-71" target="2W-PBRkv51gdTkOP3Wb2-63" edge="1">
          <mxGeometry relative="1" as="geometry">
            <Array as="points">
              <mxPoint x="400" y="350" />
              <mxPoint x="400" y="490" />
            </Array>
          </mxGeometry>
        </mxCell>
        <mxCell id="Ri6osJwRoKcSnOSPko2Z-3" style="edgeStyle=orthogonalEdgeStyle;rounded=0;orthogonalLoop=1;jettySize=auto;html=1;exitX=0.998;exitY=0.04;exitDx=0;exitDy=0;entryX=0.003;entryY=0.142;entryDx=0;entryDy=0;exitPerimeter=0;entryPerimeter=0;" parent="1" source="2W-PBRkv51gdTkOP3Wb2-12" target="2W-PBRkv51gdTkOP3Wb2-27" edge="1">
          <mxGeometry relative="1" as="geometry" />
        </mxCell>
        <mxCell id="Ri6osJwRoKcSnOSPko2Z-5" style="edgeStyle=orthogonalEdgeStyle;rounded=0;orthogonalLoop=1;jettySize=auto;html=1;exitX=0;exitY=0.5;exitDx=0;exitDy=0;entryX=1;entryY=0.5;entryDx=0;entryDy=0;" parent="1" source="2W-PBRkv51gdTkOP3Wb2-71" target="2W-PBRkv51gdTkOP3Wb2-62" edge="1">
          <mxGeometry relative="1" as="geometry">
            <Array as="points">
              <mxPoint x="400" y="350" />
              <mxPoint x="400" y="470" />
            </Array>
          </mxGeometry>
        </mxCell>
        <mxCell id="Ri6osJwRoKcSnOSPko2Z-6" style="edgeStyle=orthogonalEdgeStyle;rounded=0;orthogonalLoop=1;jettySize=auto;html=1;exitX=0;exitY=0.5;exitDx=0;exitDy=0;entryX=1;entryY=0.5;entryDx=0;entryDy=0;" parent="1" source="2W-PBRkv51gdTkOP3Wb2-70" target="2W-PBRkv51gdTkOP3Wb2-16" edge="1">
          <mxGeometry relative="1" as="geometry">
            <Array as="points">
              <mxPoint x="400" y="290" />
              <mxPoint x="400" y="150" />
            </Array>
          </mxGeometry>
        </mxCell>
        <mxCell id="Ri6osJwRoKcSnOSPko2Z-7" style="edgeStyle=orthogonalEdgeStyle;rounded=0;orthogonalLoop=1;jettySize=auto;html=1;exitX=0;exitY=0.5;exitDx=0;exitDy=0;entryX=1;entryY=0.5;entryDx=0;entryDy=0;" parent="1" source="2W-PBRkv51gdTkOP3Wb2-70" target="2W-PBRkv51gdTkOP3Wb2-18" edge="1">
          <mxGeometry relative="1" as="geometry">
            <Array as="points">
              <mxPoint x="400" y="290" />
              <mxPoint x="400" y="170" />
            </Array>
          </mxGeometry>
        </mxCell>
        <mxCell id="Ri6osJwRoKcSnOSPko2Z-8" style="edgeStyle=orthogonalEdgeStyle;rounded=0;orthogonalLoop=1;jettySize=auto;html=1;exitX=0;exitY=0.5;exitDx=0;exitDy=0;entryX=1;entryY=0.5;entryDx=0;entryDy=0;" parent="1" source="2W-PBRkv51gdTkOP3Wb2-70" target="2W-PBRkv51gdTkOP3Wb2-19" edge="1">
          <mxGeometry relative="1" as="geometry">
            <Array as="points">
              <mxPoint x="400" y="290" />
              <mxPoint x="400" y="190" />
            </Array>
          </mxGeometry>
        </mxCell>
        <mxCell id="Ri6osJwRoKcSnOSPko2Z-9" style="edgeStyle=orthogonalEdgeStyle;rounded=0;orthogonalLoop=1;jettySize=auto;html=1;exitX=0;exitY=0.5;exitDx=0;exitDy=0;entryX=1;entryY=0.5;entryDx=0;entryDy=0;" parent="1" source="2W-PBRkv51gdTkOP3Wb2-70" target="2W-PBRkv51gdTkOP3Wb2-20" edge="1">
          <mxGeometry relative="1" as="geometry">
            <Array as="points">
              <mxPoint x="400" y="290" />
              <mxPoint x="400" y="210" />
            </Array>
          </mxGeometry>
        </mxCell>
        <mxCell id="6TKqkTE9r3XJfxrBiwmd-6" style="edgeStyle=orthogonalEdgeStyle;rounded=0;orthogonalLoop=1;jettySize=auto;html=1;exitX=0;exitY=0.5;exitDx=0;exitDy=0;" parent="1" source="Ri6osJwRoKcSnOSPko2Z-1" target="2W-PBRkv51gdTkOP3Wb2-22" edge="1">
          <mxGeometry relative="1" as="geometry">
            <Array as="points">
              <mxPoint x="400" y="310" />
              <mxPoint x="400" y="320" />
              <mxPoint x="380" y="320" />
              <mxPoint x="380" y="230" />
            </Array>
          </mxGeometry>
        </mxCell>
        <mxCell id="6TKqkTE9r3XJfxrBiwmd-7" style="edgeStyle=orthogonalEdgeStyle;rounded=0;orthogonalLoop=1;jettySize=auto;html=1;exitX=0;exitY=0.5;exitDx=0;exitDy=0;entryX=1;entryY=0.5;entryDx=0;entryDy=0;" parent="1" source="6TKqkTE9r3XJfxrBiwmd-1" target="2W-PBRkv51gdTkOP3Wb2-22" edge="1">
          <mxGeometry relative="1" as="geometry">
            <Array as="points">
              <mxPoint x="400" y="330" />
              <mxPoint x="400" y="320" />
              <mxPoint x="380" y="320" />
              <mxPoint x="380" y="230" />
            </Array>
          </mxGeometry>
        </mxCell>
        <mxCell id="6TKqkTE9r3XJfxrBiwmd-8" style="edgeStyle=orthogonalEdgeStyle;rounded=0;orthogonalLoop=1;jettySize=auto;html=1;exitX=0;exitY=0.5;exitDx=0;exitDy=0;entryX=1;entryY=0.5;entryDx=0;entryDy=0;" parent="1" source="Ri6osJwRoKcSnOSPko2Z-1" target="2W-PBRkv51gdTkOP3Wb2-21" edge="1">
          <mxGeometry relative="1" as="geometry">
            <Array as="points">
              <mxPoint x="400" y="310" />
              <mxPoint x="400" y="320" />
              <mxPoint x="380" y="320" />
              <mxPoint x="380" y="250" />
            </Array>
          </mxGeometry>
        </mxCell>
        <mxCell id="6TKqkTE9r3XJfxrBiwmd-11" style="edgeStyle=orthogonalEdgeStyle;rounded=0;orthogonalLoop=1;jettySize=auto;html=1;exitX=0;exitY=0.5;exitDx=0;exitDy=0;entryX=1;entryY=0.5;entryDx=0;entryDy=0;" parent="1" source="Ri6osJwRoKcSnOSPko2Z-1" target="2W-PBRkv51gdTkOP3Wb2-23" edge="1">
          <mxGeometry relative="1" as="geometry">
            <Array as="points">
              <mxPoint x="400" y="310" />
              <mxPoint x="400" y="320" />
              <mxPoint x="380" y="320" />
              <mxPoint x="380" y="270" />
            </Array>
          </mxGeometry>
        </mxCell>
        <mxCell id="6TKqkTE9r3XJfxrBiwmd-12" style="edgeStyle=orthogonalEdgeStyle;rounded=0;orthogonalLoop=1;jettySize=auto;html=1;exitX=0;exitY=0.5;exitDx=0;exitDy=0;entryX=1;entryY=0.5;entryDx=0;entryDy=0;" parent="1" source="Ri6osJwRoKcSnOSPko2Z-1" target="2W-PBRkv51gdTkOP3Wb2-43" edge="1">
          <mxGeometry relative="1" as="geometry">
            <Array as="points">
              <mxPoint x="400" y="310" />
              <mxPoint x="400" y="320" />
              <mxPoint x="380" y="320" />
              <mxPoint x="380" y="370" />
            </Array>
          </mxGeometry>
        </mxCell>
        <mxCell id="6TKqkTE9r3XJfxrBiwmd-13" style="edgeStyle=orthogonalEdgeStyle;rounded=0;orthogonalLoop=1;jettySize=auto;html=1;exitX=0;exitY=0.5;exitDx=0;exitDy=0;entryX=1;entryY=0.5;entryDx=0;entryDy=0;" parent="1" source="Ri6osJwRoKcSnOSPko2Z-1" target="2W-PBRkv51gdTkOP3Wb2-61" edge="1">
          <mxGeometry relative="1" as="geometry">
            <Array as="points">
              <mxPoint x="400" y="310" />
              <mxPoint x="400" y="320" />
              <mxPoint x="380" y="320" />
              <mxPoint x="380" y="410" />
            </Array>
          </mxGeometry>
        </mxCell>
      </root>
    </mxGraphModel>
  </diagram>
</mxfile>
